<svg xmlns="http://www.w3.org/2000/svg" width="15.75" height="15.75" viewBox="0 0 15.75 15.75"><defs></defs><g transform="translate(0 0)"><path class="a" d="M323.958,407.23a3.291,3.291,0,0,1,3.281,3.281v6.562a3.291,3.291,0,0,1-3.281,3.282H317.4a3.291,3.291,0,0,1-3.282-3.281v-6.562a3.291,3.291,0,0,1,3.282-3.281h6.562m0-1.312H317.4a4.607,4.607,0,0,0-4.594,4.594v6.562a4.607,4.607,0,0,0,4.594,4.594h6.562a4.607,4.607,0,0,0,4.594-4.594v-6.562A4.607,4.607,0,0,0,323.958,405.918Z" transform="translate(-312.802 -405.917)"/><path class="a" d="M349.691,416.342a.982.982,0,1,1,.984-.983.982.982,0,0,1-.984.983Z" transform="translate(-337.551 -411.748)"/><path class="a" d="M329.409,419.9a2.625,2.625,0,1,1-2.625,2.625,2.625,2.625,0,0,1,2.625-2.625m0-1.312a3.938,3.938,0,1,0,3.938,3.938,3.937,3.937,0,0,0-3.938-3.938Z" transform="translate(-321.533 -414.649)"/></g></svg>