<svg xmlns="http://www.w3.org/2000/svg" width="28.125" height="15.75" viewBox="0 0 28.125 15.75"><path class="a" d="M186.441,565.929a1.44,1.44,0,0,0,.768-.33,1.194,1.194,0,0,0,.229-.725s-.032-2.213,1.015-2.54,2.356,2.14,3.763,3.087a2.7,2.7,0,0,0,1.868.559l3.756-.051s1.964-.119,1.034-1.635a12.416,12.416,0,0,0-2.792-3.172c-2.356-2.146-2.04-1.8.8-5.51,1.728-2.26,2.418-3.641,2.2-4.231-.206-.564-1.477-.414-1.477-.414l-4.228.025a.975.975,0,0,0-.546.094,1.175,1.175,0,0,0-.374.446,23.863,23.863,0,0,1-1.561,3.237c-1.883,3.138-2.636,3.3-2.944,3.11-.716-.455-.538-1.825-.538-2.8,0-3.042.471-4.31-.915-4.638a7.356,7.356,0,0,0-1.973-.193,9.335,9.335,0,0,0-3.509.353c-.482.231-.853.747-.626.777a1.909,1.909,0,0,1,1.247.615,3.944,3.944,0,0,1,.418,1.878s.249,3.582-.582,4.026c-.57.305-1.351-.317-3.03-3.165a26.261,26.261,0,0,1-1.509-3.071,1.237,1.237,0,0,0-.349-.463,1.76,1.76,0,0,0-.65-.256l-4.018.026s-.6.016-.825.274c-.2.228-.015.7-.015.7s3.146,7.225,6.709,10.867a9.75,9.75,0,0,0,6.976,3.119Z" transform="translate(-171 -550.244)"/></svg>